<svg width="current" height="current" viewBox="0 0 18 18" fill="current" xmlns="http://www.w3.org/2000/svg">
<path d="M14.1328 5.90625C14.0298 7.33605 12.9691 8.4375 11.8125 8.4375C10.6559 8.4375 9.59343 7.33641 9.49218 5.90625C9.38671 4.41879 10.4193 3.375 11.8125 3.375C13.2057 3.375 14.2383 4.44586 14.1328 5.90625Z" stroke="current" stroke-linecap="round" stroke-linejoin="round"/>
<path d="M11.8125 10.6875C9.52138 10.6875 7.31814 11.8255 6.76619 14.0418C6.69306 14.335 6.87693 14.625 7.17822 14.625H16.4472C16.7485 14.625 16.9313 14.335 16.8592 14.0418C16.3072 11.79 14.104 10.6875 11.8125 10.6875Z" stroke="current" stroke-miterlimit="10"/>
<path d="M7.03125 6.53695C6.94898 7.67883 6.09188 8.57812 5.16797 8.57812C4.24406 8.57812 3.38555 7.67918 3.30469 6.53695C3.22066 5.34902 4.05492 4.5 5.16797 4.5C6.28102 4.5 7.11527 5.37082 7.03125 6.53695Z" stroke="current" stroke-linecap="round" stroke-linejoin="round"/>
<path d="M7.2422 10.7578C6.60763 10.4671 5.90872 10.3553 5.16798 10.3553C3.33985 10.3553 1.57852 11.2641 1.13731 13.0342C1.07931 13.2683 1.22626 13.5 1.46673 13.5H5.41407" stroke="current" stroke-miterlimit="10" stroke-linecap="round"/>
</svg>
