<svg width="19" height="18" viewBox="0 0 19 18" fill="none" xmlns="http://www.w3.org/2000/svg">
<path d="M3.86827 1.62722C4.02454 1.4438 4.10961 1.2012 4.10557 0.950523C4.10153 0.699851 4.00868 0.460681 3.84659 0.283401C3.6845 0.106121 3.46582 0.00457357 3.23662 0.000150748C3.00743 -0.00427207 2.78561 0.0887754 2.6179 0.259691L0.25873 2.83994C0.0930569 3.02136 0 3.26729 0 3.5237C0 3.78012 0.0930569 4.02604 0.25873 4.20747L2.6179 6.78772C2.6989 6.88278 2.79657 6.95903 2.90509 7.01192C3.01361 7.0648 3.13076 7.09324 3.24955 7.09553C3.36833 7.09782 3.48633 7.07392 3.59649 7.02526C3.70665 6.97659 3.80671 6.90416 3.89072 6.81228C3.97473 6.7204 4.04096 6.61095 4.08545 6.49047C4.12995 6.36999 4.1518 6.24094 4.1497 6.11102C4.14761 5.9811 4.12161 5.85297 4.07326 5.73428C4.0249 5.61559 3.95519 5.50877 3.86827 5.42019L3.01896 4.4913H15.039C15.2736 4.4913 15.4986 4.38935 15.6645 4.20789C15.8304 4.02644 15.9236 3.78033 15.9236 3.5237C15.9236 3.26708 15.8304 3.02097 15.6645 2.83951C15.4986 2.65805 15.2736 2.55611 15.039 2.55611H3.01896L3.86827 1.62722ZM14.4138 10.5807C14.2481 10.7621 14.155 11.008 14.155 11.2644C14.155 11.5209 14.2481 11.7668 14.4138 11.9482L15.2631 12.8771H3.24308C3.00845 12.8771 2.78343 12.979 2.61751 13.1605C2.4516 13.342 2.35839 13.5881 2.35839 13.8447C2.35839 14.1013 2.4516 14.3474 2.61751 14.5289C2.78343 14.7103 3.00845 14.8123 3.24308 14.8123H15.2631L14.4138 15.7412C14.3268 15.8298 14.2571 15.9366 14.2088 16.0553C14.1604 16.174 14.1344 16.3021 14.1323 16.432C14.1302 16.5619 14.1521 16.691 14.1966 16.8115C14.2411 16.9319 14.3073 17.0414 14.3913 17.1333C14.4753 17.2251 14.5754 17.2976 14.6856 17.3462C14.7957 17.3949 14.9137 17.4188 15.0325 17.4165C15.1513 17.4142 15.2684 17.3858 15.3769 17.3329C15.4855 17.28 15.5831 17.2038 15.6641 17.1087L18.0233 14.5285C18.189 14.347 18.282 14.1011 18.282 13.8447C18.282 13.5883 18.189 13.3424 18.0233 13.1609L15.6641 10.5807C15.4983 10.3995 15.2734 10.2977 15.039 10.2977C14.8045 10.2977 14.5796 10.3995 14.4138 10.5807Z" fill="white"/>
</svg>
