<svg width="25" height="24" viewBox="0 0 25 24" fill="current" xmlns="http://www.w3.org/2000/svg">
<path d="M12.5 0C10.8585 0 9.23303 0.318095 7.71646 0.936124C6.19989 1.55415 4.8219 2.46001 3.66117 3.60198C1.31696 5.90829 0 9.03631 0 12.2979C0 17.7336 3.5875 22.3453 8.55 23.981C9.175 24.0793 9.375 23.6981 9.375 23.3661V21.2877C5.9125 22.0256 5.175 19.6398 5.175 19.6398C4.6 18.2132 3.7875 17.832 3.7875 17.832C2.65 17.0695 3.875 17.0941 3.875 17.0941C5.125 17.1802 5.7875 18.3608 5.7875 18.3608C6.875 20.2301 8.7125 19.6767 9.425 19.3815C9.5375 18.5822 9.8625 18.0411 10.2125 17.7336C7.4375 17.4262 4.525 16.3685 4.525 11.683C4.525 10.318 5 9.22344 5.8125 8.35029C5.6875 8.04284 5.25 6.76386 5.9375 5.10364C5.9375 5.10364 6.9875 4.77159 9.375 6.35803C10.3625 6.08747 11.4375 5.9522 12.5 5.9522C13.5625 5.9522 14.6375 6.08747 15.625 6.35803C18.0125 4.77159 19.0625 5.10364 19.0625 5.10364C19.75 6.76386 19.3125 8.04284 19.1875 8.35029C20 9.22344 20.475 10.318 20.475 11.683C20.475 16.3808 17.55 17.4139 14.7625 17.7213C15.2125 18.1025 15.625 18.8527 15.625 19.9964V23.3661C15.625 23.6981 15.825 24.0916 16.4625 23.981C21.425 22.333 25 17.7336 25 12.2979C25 10.6829 24.6767 9.08376 24.0485 7.59171C23.4203 6.09966 22.4996 4.74395 21.3388 3.60198C20.1781 2.46001 18.8001 1.55415 17.2835 0.936124C15.767 0.318095 14.1415 0 12.5 0Z" fill="current"/>
</svg>
